# Blender 3.6.4
# www.blender.org
mtllib flower1.mtl.mtl
o bud
v 0.000000 0.491438 0.220399
v 0.220399 0.491438 0.000000
v -0.220399 0.491438 0.000000
v 0.000000 0.491438 -0.220399
v -0.143634 0.491438 0.143634
v 0.143634 0.491438 0.143634
v 0.143634 0.491438 -0.143634
v -0.143634 0.491438 -0.143634
v 0.000000 0.564554 0.000000
v 0.071817 0.491438 -0.182016
v -0.182016 0.491438 0.071817
v -0.101196 0.554615 -0.101196
v 0.182016 0.491438 0.071817
v -0.071817 0.491438 -0.182016
v 0.101196 0.554615 -0.101196
v 0.000000 0.549646 -0.178836
v -0.071817 0.491438 0.182016
v 0.182016 0.491438 -0.071817
v 0.101196 0.554615 0.101196
v 0.178836 0.549646 0.000000
v -0.182016 0.491438 -0.071817
v 0.071817 0.491438 0.182016
v -0.101196 0.554615 0.101196
v -0.178836 0.549646 0.000000
v 0.000000 0.549646 0.178836
vn -0.0000 0.8201 -0.5723
vn 0.3119 0.6344 -0.7073
vn -0.0000 0.5811 -0.8138
vn -0.3119 0.6344 -0.7073
vn -0.5723 0.8201 -0.0000
vn -0.3316 0.8832 -0.3316
vn -0.5403 0.6451 -0.5403
vn -0.7073 0.6344 -0.3119
vn -0.0000 0.8201 0.5723
vn 0.3316 0.8832 0.3316
vn -0.0000 1.0000 -0.0000
vn -0.3316 0.8832 0.3316
vn 0.5723 0.8201 -0.0000
vn 0.7073 0.6344 -0.3119
vn 0.5403 0.6451 -0.5403
vn 0.3316 0.8832 -0.3316
vn 0.5403 0.6451 0.5403
vn 0.7073 0.6344 0.3119
vn 0.8138 0.5811 -0.0000
vn 0.3119 0.6344 0.7073
vn -0.0000 0.5811 0.8138
vn -0.3119 0.6344 0.7073
vn -0.5403 0.6451 0.5403
vn -0.7073 0.6344 0.3119
vn -0.8138 0.5811 -0.0000
vt 0.750000 0.750000
vt 1.000000 0.750000
vt 1.000000 1.000000
vt 0.750000 1.000000
vt 0.250000 0.750000
vt 0.500000 0.750000
vt 0.500000 1.000000
vt 0.250000 1.000000
vt 0.250000 0.250000
vt 0.500000 0.250000
vt 0.500000 0.500000
vt 0.250000 0.500000
vt 0.750000 0.250000
vt 1.000000 0.250000
vt 1.000000 0.500000
vt 0.750000 0.500000
vt 0.500000 0.000000
vt 0.750000 0.000000
vt 1.000000 0.000000
vt 0.250000 0.000000
vt 0.000000 0.000000
vt 0.000000 0.250000
vt 0.000000 0.500000
vt 0.000000 0.750000
vt 0.000000 1.000000
s 1
usemtl Material.003
f 16/1/1 10/2/2 4/3/3 14/4/4
f 24/5/5 12/6/6 8/7/7 21/8/8
f 25/9/9 19/10/10 9/11/11 23/12/12
f 20/13/13 18/14/14 7/15/15 15/16/16
f 23/12/12 9/11/11 12/6/6 24/5/5
f 15/16/16 7/15/15 10/2/2 16/1/1
f 9/11/11 15/16/16 16/1/1 12/6/6
f 19/10/10 20/13/13 15/16/16 9/11/11
f 12/6/6 16/1/1 14/4/4 8/7/7
f 6/17/17 13/18/18 20/13/13 19/10/10
f 13/18/18 2/19/19 18/14/14 20/13/13
f 22/20/20 6/17/17 19/10/10 25/9/9
f 1/21/21 22/20/20 25/9/9 17/22/22
f 5/23/23 23/12/12 24/5/5 11/24/24
f 17/22/22 25/9/9 23/12/12 5/23/23
f 11/24/24 24/5/5 21/8/8 3/25/25
o stem
v -0.094604 0.537285 -0.000000
v 0.094604 0.537285 -0.000000
v -0.094604 0.013125 0.000000
v 0.094604 0.013125 0.000000
v -0.000000 0.537285 0.094604
v -0.000000 0.537285 -0.094604
v 0.000000 0.013125 0.094604
v 0.000000 0.013125 -0.094604
vn -0.0000 -0.0000 -1.0000
vn -1.0000 -0.0000 -0.0000
vt 0.000000 0.000000
vt 1.000000 0.000000
vt 1.000000 1.000000
vt 0.000000 1.000000
s 0
usemtl Material.001
f 26/26/26 27/27/26 29/28/26 28/29/26
f 30/26/27 31/27/27 33/28/27 32/29/27
o leaves
v 0.323155 0.175238 0.155944
v 0.568906 0.175238 0.000000
v 0.077404 0.175238 0.000000
v 0.323155 0.175238 -0.155944
v 0.200280 0.175238 0.122876
v 0.446031 0.175238 0.122876
v 0.446031 0.175238 -0.122876
v 0.200280 0.175238 -0.122876
v 0.323155 0.175238 0.000000
v -0.322411 0.175238 0.155944
v -0.076660 0.175238 0.000000
v -0.568162 0.175238 0.000000
v -0.322411 0.175238 -0.155944
v -0.445286 0.175238 0.122876
v -0.199535 0.175238 0.122876
v -0.199535 0.175238 -0.122876
v -0.445286 0.175238 -0.122876
v -0.322411 0.175238 0.000000
vn -0.0000 1.0000 -0.0000
vt 0.500000 0.500000
vt 1.000000 0.500000
vt 1.000000 1.000000
vt 0.500000 1.000000
vt 0.000000 0.500000
vt 0.000000 1.000000
vt 0.000000 0.000000
vt 0.500000 0.000000
vt 1.000000 0.000000
s 0
usemtl Material.001
f 42/30/28 40/31/28 37/32/28 41/33/28
f 38/34/28 42/30/28 41/33/28 36/35/28
f 34/36/28 39/37/28 42/30/28 38/34/28
f 39/37/28 35/38/28 40/31/28 42/30/28
f 51/30/28 49/31/28 46/32/28 50/33/28
f 47/34/28 51/30/28 50/33/28 45/35/28
f 43/36/28 48/37/28 51/30/28 47/34/28
f 48/37/28 44/38/28 49/31/28 51/30/28
o flower
v 0.000000 0.491438 0.220399
v 0.220399 0.491438 0.000000
v -0.220399 0.491438 0.000000
v 0.000000 0.491438 -0.220399
v -0.143634 0.491438 0.143634
v 0.143634 0.491438 0.143634
v 0.143634 0.491438 -0.143634
v -0.143634 0.491438 -0.143634
v 0.000000 0.479518 0.452305
v 0.452305 0.479518 0.000000
v -0.452305 0.479518 0.000000
v 0.000000 0.479518 -0.452305
v -0.294766 0.479518 0.294766
v 0.294766 0.479518 0.294766
v 0.294766 0.479518 -0.294766
v -0.294766 0.479518 -0.294766
v 0.071817 0.491438 -0.182016
v -0.182016 0.491438 0.071817
v 0.211595 0.505813 -0.536279
v -0.536279 0.458469 0.211595
v 0.182016 0.491438 0.071817
v -0.071817 0.491438 -0.182016
v 0.536279 0.505813 0.211595
v -0.211595 0.458469 -0.536279
v -0.071817 0.491438 0.182016
v 0.182016 0.491438 -0.071817
v -0.211595 0.505813 0.536279
v 0.536279 0.458469 -0.211595
v -0.182016 0.491438 -0.071817
v 0.071817 0.491438 0.182016
v -0.536279 0.505813 -0.211595
v 0.211595 0.458469 0.536279
vn -0.0362 0.9967 -0.0721
vn -0.0798 0.9960 -0.0398
vn -0.0797 0.9960 -0.0399
vn -0.0400 0.9967 -0.0706
vn 0.0362 0.9967 0.0721
vn 0.0798 0.9960 0.0398
vn 0.0797 0.9960 0.0399
vn 0.0400 0.9967 0.0706
vn 0.0183 0.9998 0.0020
vn 0.0190 0.9966 -0.0801
vn 0.0189 0.9966 -0.0801
vn 0.0133 0.9998 0.0147
vn -0.0183 0.9998 -0.0020
vn -0.0190 0.9966 0.0801
vn -0.0189 0.9966 0.0801
vn -0.0133 0.9998 -0.0147
vn 0.0721 0.9967 -0.0362
vn 0.0398 0.9960 -0.0798
vn 0.0399 0.9960 -0.0797
vn 0.0706 0.9967 -0.0400
vn -0.0721 0.9967 0.0362
vn -0.0398 0.9960 0.0798
vn -0.0399 0.9960 0.0797
vn -0.0706 0.9967 0.0400
vn -0.0020 0.9998 0.0183
vn 0.0801 0.9966 0.0190
vn 0.0801 0.9966 0.0189
vn -0.0147 0.9998 0.0133
vn 0.0020 0.9998 -0.0183
vn -0.0801 0.9966 -0.0190
vn -0.0801 0.9966 -0.0189
vn 0.0147 0.9998 -0.0133
vt 0.750000 1.000000
vt 1.000000 1.000000
vt 0.250000 0.000000
vt 0.000000 0.000000
vt 0.250000 1.000000
vt 0.500000 1.000000
vt 0.250000 1.000000
vt 0.750000 0.000000
vt 0.500000 0.000000
vt 1.000000 0.250000
vt 1.000000 0.000000
vt 0.000000 0.750000
vt 0.000000 1.000000
vt 1.000000 0.750000
vt 1.000000 0.500000
vt 0.000000 0.250000
vt 0.000000 0.500000
vt 0.000000 0.250000
s 1
f 73/39/29 55/40/30 63/40/31 75/39/32
f 81/41/33 52/42/34 60/42/35 83/41/36
f 80/43/37 59/44/38 67/44/39 82/45/40
f 72/46/41 57/47/42 65/47/43 74/46/44
f 77/48/45 53/49/46 61/49/47 79/48/48
f 69/50/49 54/51/50 62/51/51 71/50/52
f 68/52/53 58/53/54 66/53/55 70/52/56
f 76/54/57 56/55/58 64/55/59 78/56/60
f 55/40/30 68/52/53 70/52/56 63/40/31
f 56/55/58 69/50/49 71/50/52 64/55/59
f 53/49/46 72/46/41 74/46/44 61/49/47
f 59/44/38 73/39/29 75/39/32 67/44/39
f 52/42/34 76/54/57 78/56/60 60/42/35
f 58/53/54 77/48/45 79/48/48 66/53/55
f 54/51/50 80/43/37 82/45/40 62/51/51
f 57/47/42 81/41/33 83/41/36 65/47/43
